<svg xmlns="http://www.w3.org/2000/svg" width="11" height="11" viewBox="0 0 11 11">
  <path fill="#FFFFFF" fill-rule="evenodd" d="M10.4115384,17.4499998 L8.21923077,17.4499998 L8.21923077,10.8730769 L10.4115384,10.8730769 L10.4115384,17.4499998 L10.4115384,17.4499998 Z M9.31538459,9.63076918 C8.58461537,9.63076918 8,9.04615381 8,8.31538459 C8,7.58461537 8.58461537,7 9.31538459,7 C10.0461538,7 10.6307692,7.58461537 10.6307692,8.31538459 C10.6307692,9.04615381 10.0461538,9.63076918 9.31538459,9.63076918 L9.31538459,9.63076918 Z M18.4499998,17.4499998 L16.2576922,17.4499998 L16.2576922,13.576923 C16.2576922,12.9923076 15.7461537,12.4807691 15.1615383,12.4807691 C14.576923,12.4807691 14.0653845,12.9923076 14.0653845,13.576923 L14.0653845,17.4499998 L11.8730769,17.4499998 L11.8730769,10.8730769 L14.0653845,10.8730769 L14.0653845,11.7499999 C14.4307691,11.1653845 15.2346153,10.726923 15.8923075,10.726923 C17.2807691,10.726923 18.4499998,11.8961538 18.4499998,13.2846153 L18.4499998,17.4499998 L18.4499998,17.4499998 Z" transform="translate(-8 -7)"/>
</svg>
