<svg xmlns="http://www.w3.org/2000/svg" width="34" height="36" viewBox="0 0 34 36">
  <path fill="#B6985A" fill-rule="evenodd" d="M29.821944,26.8958587 C29.8010907,26.9103653 29.7766107,26.9171653 29.7534907,26.9171653 C29.7167707,26.9171653 29.680504,26.9008453 29.6555707,26.869112 C29.615224,26.8178853 29.622024,26.7448987 29.6687173,26.7009253 C30.5490907,25.8808453 31.1379707,24.8599387 31.3238373,23.8249787 C31.4258373,23.308632 31.4448773,22.7542053 31.3823173,22.1789253 C31.319304,21.573272 31.1923707,21.0587387 30.9974373,20.6017787 C30.6048507,19.6715387 29.8781573,18.8528187 28.8962373,18.230392 C27.934264,17.599352 26.853064,17.1564453 25.8271707,16.7702053 C25.435944,16.617432 25.042904,16.4723653 24.6475973,16.3254853 C23.948104,16.065272 23.224584,15.7978053 22.5142107,15.4895387 C21.4833307,15.023512 20.3082907,14.4464187 19.401624,13.478552 C18.932424,12.9798853 18.5792773,12.410952 18.382984,11.8352187 C18.1780773,11.2567653 18.0874107,10.6243653 18.1146107,9.958872 C18.166744,8.613832 18.6273307,7.41068533 19.4115973,6.57292533 C19.4551173,6.52532533 19.5285573,6.52033867 19.579784,6.55977867 C19.630104,6.60012533 19.640984,6.671752 19.606984,6.72524533 C18.8471973,7.87625867 18.7519973,9.11385867 18.8023173,9.94889867 C18.8444773,11.0786053 19.2978107,12.0936187 20.074824,12.8103387 C20.9361573,13.614552 22.0608773,14.1222853 22.941704,14.4763387 C23.6185307,14.7506053 24.330264,15.0062853 25.0166107,15.251992 C25.4214373,15.3984187 25.8285307,15.545752 26.2365307,15.6971653 C27.2646907,16.1010853 28.452424,16.591592 29.5095973,17.3155653 C30.3301307,17.8804187 31.4086107,18.8496453 31.8859707,20.260872 C32.2980507,21.4612987 32.3361307,22.7501253 31.9956773,23.9854587 C31.6570373,25.1523387 30.863704,26.2140453 29.821944,26.8958587 M17.0198107,30.572392 L16.5356507,31.9672987 C16.5179707,32.0185253 16.4712773,32.050712 16.4173307,32.050712 L16.4168773,32.050712 C16.3656507,32.050712 16.318504,32.0158053 16.299464,31.9654853 L6.44173067,2.386392 C6.42813067,2.34921867 6.43357067,2.30705867 6.45805067,2.27396533 C6.48117067,2.24268533 6.51925067,2.223192 6.55959733,2.223192 L7.508424,2.223192 C7.561464,2.223192 7.60997067,2.257192 7.62583733,2.30841867 L17.0198107,30.493512 C17.0293307,30.5188987 17.0293307,30.547912 17.0198107,30.572392 M25.732424,13.3624987 C25.2963173,13.2165253 24.866104,13.070552 24.4517573,12.9232187 C24.3878373,12.9000987 24.3542907,12.829832 24.3760507,12.7636453 L26.3285573,7.14820533 C25.9400507,6.983192 25.5166373,6.87892533 25.0392773,6.83177867 L23.2050907,12.281752 C23.1937573,12.315752 23.1692773,12.3424987 23.1370907,12.356552 C23.1058107,12.3692453 23.0677307,12.3692453 23.0373573,12.3547387 C21.694584,11.744552 20.156424,10.7784987 20.156424,8.71945867 C20.156424,6.54481867 21.7702907,5.19569867 24.3701573,5.19569867 C24.701544,5.19569867 25.0311173,5.21836533 25.4105573,5.266872 C25.414184,5.26777867 25.4214373,5.268232 25.4286907,5.26913867 C26.0012507,5.347112 26.5194107,5.48220533 26.9682107,5.67033867 L26.970024,5.67033867 C26.972744,5.672152 26.9777307,5.673512 26.980904,5.673512 C29.4855707,6.72705867 30.282984,9.37633867 30.6850907,11.6026587 L31.6398107,11.6026587 L31.6398107,5.409672 L31.4181307,5.33713867 C30.1533307,4.92324533 28.8472773,4.49484533 27.494984,4.22193867 C27.459624,4.21513867 27.429704,4.19292533 27.4129307,4.16164533 C27.3938907,4.12945867 27.3907173,4.093192 27.401144,4.059192 L28.4424507,1.06628533 C28.459224,1.016872 28.506824,0.983778667 28.5594107,0.983778667 L32.0831707,0.983778667 L32.0831707,4.53333333e-05 L21.8831707,4.53333333e-05 L21.8831707,0.983778667 L26.835384,0.983778667 C26.8752773,0.983778667 26.9119973,1.00281867 26.936024,1.03500533 C26.9600507,1.06809867 26.965944,1.10980533 26.952344,1.14788533 L26.0257307,3.90052533 C26.0080507,3.954472 25.9572773,3.99028533 25.8965307,3.98529867 C25.4014907,3.938152 24.9948507,3.91548533 24.615864,3.91548533 C20.7543707,3.91548533 16.8547973,6.148152 16.8547973,11.1357253 C16.8547973,15.5833787 20.523624,16.9456453 24.0700507,18.261672 C27.1527173,19.4076987 30.0644773,20.4888987 30.0644773,23.5552453 C30.0644773,26.4524987 27.232504,28.0160453 24.5687173,28.0160453 C22.6361573,28.0160453 21.0422373,27.5241787 19.6890373,26.5109787 C19.6482373,26.4796987 19.630104,26.4225787 19.6482373,26.3718053 L22.1279707,19.232712 C21.769384,19.0894587 21.3990107,18.933512 21.0231973,18.7657787 L18.778744,25.4415653 C18.7628773,25.483272 18.728424,25.514552 18.6858107,25.522712 C18.642744,25.532232 18.5974107,25.5177253 18.567944,25.4855387 C17.3566373,24.149112 16.3588507,22.2251653 15.522904,19.6008187 L9.66311733,1.14425867 C9.65133067,1.107992 9.65677067,1.06628533 9.68079733,1.03409867 C9.70527733,1.00281867 9.742904,0.983778667 9.782344,0.983778667 L14.734104,0.983778667 L14.734104,4.53333333e-05 L-0.000136,4.53333333e-05 L-0.000136,0.983778667 L3.916664,0.983778667 C3.97015733,0.983778667 4.017304,1.01777867 4.03543733,1.06809867 L15.539224,35.583992 L16.4454373,35.583992 L18.9274373,28.4444453 C18.9478373,28.3850587 19.009944,28.3496987 19.0729573,28.3642053 C20.896264,28.792152 22.6597307,28.9997787 24.4685307,28.9997787 C29.0367707,28.9997787 33.659864,26.4701787 33.659864,21.631752 C33.659864,16.0389787 29.4488507,14.618232 25.732424,13.3624987"/>
</svg>
