<svg xmlns="http://www.w3.org/2000/svg" width="35" height="35" viewBox="0 0 35 35">
  <path fill="#FFFFFF" fill-rule="evenodd" d="M87,15.1666667 C89.7222222,20.6111111 94.3888889,25.0833333 99.8333333,28 L104.111111,23.7222222 C104.694444,23.1388889 105.472222,22.9444444 106.055556,23.3333333 C108.194444,24.1111111 110.527778,24.5 113.055556,24.5 C114.222222,24.5 115,25.2777778 115,26.4444444 L115,33.0555556 C115,34.2222222 114.222222,35 113.055556,35 C94.7777778,35 80,20.2222222 80,1.94444444 C80,0.777777778 80.7777778,0 81.9444444,0 L88.75,0 C89.9166667,0 90.6944444,0.777777778 90.6944444,1.94444444 C90.6944444,4.27777778 91.0833333,6.61111111 91.8611111,8.94444444 C92.0555556,9.52777778 91.8611111,10.3055556 91.4722222,10.8888889 L87,15.1666667 L87,15.1666667 Z" transform="translate(-80)"/>
</svg>
