<svg xmlns="http://www.w3.org/2000/svg" width="14" height="12" viewBox="0 0 14 12">
  <path fill="#FFFFFF" fill-rule="evenodd" d="M18.6140627,9.85633218 C18.5062502,14.8157072 15.3796876,18.2657073 10.6359376,18.4813323 C8.69531254,18.5891448 7.29375002,17.9422698 6,17.1875823 C7.40156252,17.4032073 9.23437504,16.8641448 10.2046876,16.0016448 C8.80312504,15.8938323 7.94062503,15.1391448 7.50937502,13.9532072 C7.94062503,14.0610197 8.37187503,13.9532072 8.69531254,13.9532072 C7.40156252,13.5219572 6.53906251,12.7672697 6.43125001,11.0422697 C6.75468751,11.2578947 7.18593752,11.3657072 7.61718752,11.3657072 C6.64687501,10.8266447 6,8.77820717 6.75468751,7.48445715 C8.15625003,8.99383217 9.88125005,10.2875822 12.6843751,10.5032072 C11.9296876,7.48445715 16.0265626,5.86726962 17.6437502,7.91570715 C18.3984377,7.80789465 18.9375002,7.48445715 19.4765627,7.26883214 C19.2609377,8.02351965 18.8296877,8.45476966 18.2906252,8.88601967 C18.8296877,8.77820717 19.3687502,8.67039466 19.8000002,8.45476966 C19.6921877,8.99383217 19.1531252,9.42508217 18.6140627,9.85633218 L18.6140627,9.85633218 Z" transform="translate(-6 -7)"/>
</svg>
